<?xml version="1.0" standalone="no"?>
<!DOCTYPE svg PUBLIC "-//W3C//DTD SVG 20010904//EN"
 "http://www.w3.org/TR/2001/REC-SVG-20010904/DTD/svg10.dtd">
<svg version="1.0" xmlns="http://www.w3.org/2000/svg"
 width="1052.000000pt" height="1052.000000pt" viewBox="0 0 1052.000000 1052.000000"
 preserveAspectRatio="xMidYMid meet">
<metadata>
Created by potrace 1.14, written by Peter Selinger 2001-2017
</metadata>
<g transform="translate(0.000000,1052.000000) scale(0.100000,-0.100000)"
fill="#000000" stroke="none">
<path d="M5058 10515 c-2 -1 -55 -5 -118 -8 -1077 -58 -2169 -487 -3020 -1186
-159 -131 -181 -151 -390 -361 -239 -238 -350 -372 -618 -740 -151 -209 -385
-644 -515 -960 -95 -232 -221 -628 -262 -828 -2 -10 -8 -37 -14 -62 -10 -48
-11 -49 -35 -180 -18 -99 -23 -136 -45 -300 -41 -304 -49 -866 -16 -1115 2
-16 7 -59 10 -95 5 -57 20 -166 40 -295 4 -22 16 -85 27 -140 11 -55 22 -111
24 -125 14 -70 71 -282 111 -410 190 -614 499 -1203 893 -1703 198 -252 497
-562 730 -757 36 -30 67 -58 70 -61 10 -12 258 -198 335 -251 81 -57 333 -218
341 -218 2 0 36 -19 76 -43 40 -23 145 -78 233 -121 88 -43 168 -82 177 -87
54 -28 356 -145 498 -193 243 -81 580 -166 800 -201 8 -1 38 -5 65 -10 28 -4
59 -9 70 -11 11 -3 43 -7 70 -9 28 -3 61 -7 75 -10 23 -3 70 -8 225 -21 96 -9
551 -10 665 -3 195 13 278 22 440 45 58 8 120 17 137 19 18 3 52 9 75 14 24 6
59 13 78 16 41 6 215 47 265 61 6 2 21 5 35 8 191 42 570 177 855 306 69 31
300 147 355 178 230 130 469 286 640 416 326 249 654 567 907 881 200 248 373
507 528 790 52 94 205 408 205 420 0 3 9 26 20 49 82 181 239 655 256 775 2
18 8 41 13 50 24 44 98 459 116 646 4 39 8 81 11 95 24 151 23 811 -1 961 -2
13 -6 55 -10 92 -3 37 -8 76 -9 85 -2 9 -7 43 -11 76 -8 68 -9 75 -36 221
-144 779 -469 1527 -943 2170 -44 60 -88 119 -97 130 -363 440 -687 749 -1084
1030 -649 461 -1436 783 -2212 905 -37 6 -79 13 -93 15 -73 11 -169 23 -260
30 -41 3 -97 8 -125 12 -49 5 -551 13 -557 8z"/>
</g>
</svg>
