<svg xmlns="http://www.w3.org/2000/svg" xmlns:xlink="http://www.w3.org/1999/xlink" xml:space="preserve" id="Merged" x="0" y="0" style="enable-background:new 0 0 1024 1024" version="1.1" viewBox="0 0 1024 1024"><style>.st0{fill:#fff}</style><path d="M653.593 69.338c-59.76-19.115-121.48-25.953-183.432-20.327-59.84 5.438-117.397 22.217-171.05 49.863-53.652 27.656-100.715 64.788-139.871 110.363-38.64 44.968-67.926 96.347-87.138 152.808a540.498 540.498 0 0 0-2.764 8.371c-.892 2.8-1.765 5.608-2.612 8.416-7.632 27.299-10.2 55.32-7.65 83.447 2.728 29.991 11.127 58.815 24.981 85.694 13.846 26.88 32.452 50.452 55.284 70.065 23.643 20.31 50.808 35.456 80.746 45.04 29.937 9.575 60.855 13.008 91.89 10.182 29.982-2.72 58.814-11.127 85.693-24.972 26.87-13.854 50.452-32.452 70.074-55.293 18.08-21.049 32.078-44.897 41.688-71.019.892-3.299 1.873-6.58 2.916-9.86a222.65 222.65 0 0 1 3.343-9.718c9.61-26.122 23.608-49.97 41.688-71.028 19.613-22.832 43.194-41.438 70.065-55.284 26.88-13.854 55.712-22.252 85.694-24.972 31.034-2.826 61.952.598 91.89 10.173 29.946 9.575 57.102 24.73 80.746 45.04 22.832 19.613 41.438 43.186 55.292 70.074 13.846 26.87 22.253 55.703 24.981 85.685 1.774 19.578 1.07 39.102-2.104 58.368 11.92-49.31 15.629-99.726 11.046-150.294-5.438-59.839-22.217-117.387-49.863-171.048-27.647-53.653-64.788-100.716-110.363-139.872-47.188-40.547-101.42-70.788-161.17-89.902z" class="st0"/><defs><circle id="SVGID_1_" cx="512" cy="512" r="469.349"/></defs><clipPath id="SVGID_00000077295404191618591410000017698506761033732492_"><use xlink:href="#SVGID_1_" style="overflow:visible"/></clipPath><g style="clip-path:url(#SVGID_00000077295404191618591410000017698506761033732492_)"><path d="M979.435 469.756c-5.49-60.407-22.426-118.508-50.34-172.69-27.909-54.159-65.396-101.67-111.422-141.213-47.629-40.924-102.376-71.463-162.72-90.767-60.33-19.298-122.64-26.202-185.196-20.521-60.42 5.49-118.52 22.428-172.69 50.34-54.172 27.924-101.683 65.412-141.214 111.422-38.98 45.366-68.579 97.272-87.979 154.282a542.475 542.475 0 0 0-2.79 8.452 585.787 585.787 0 0 0-2.633 8.482l-.025.087-.06.228c-17.207 57.57-23.197 116.91-17.801 176.376 5.491 60.42 22.428 118.52 50.341 172.69 27.922 54.187 65.41 101.699 111.422 141.214 47.647 40.932 102.397 71.47 162.728 90.767 46.67 14.93 94.532 22.44 142.797 22.44 14.103 0 28.248-.643 42.399-1.928 60.398-5.48 118.5-22.417 172.69-50.34 54.158-27.907 101.67-65.395 141.214-111.423 33.336-38.806 59.909-82.56 78.976-130.035.802-1.983 1.63-4.09 2.458-6.25a470.899 470.899 0 0 0 9.316-26.441 477.173 477.173 0 0 0 7.757-26.947l.058-.256c.408-2.098.777-4.202 1.127-6.31l.435.09c12.019-49.722 15.771-100.777 11.152-151.749zM76.328 363.483c19.03-55.923 48.065-106.84 86.298-151.337 38.778-45.135 85.386-81.91 138.53-109.303 53.144-27.384 110.14-44 169.408-49.386 61.36-5.572 122.482 1.202 181.669 20.133 59.2 18.938 112.904 48.894 159.62 89.036 45.15 38.79 81.926 85.399 109.305 138.53 27.384 53.154 44 110.151 49.385 169.407a457.331 457.331 0 0 1-.431 87.274c-3.128-29.177-11.557-57.242-25.077-83.481-14.113-27.39-33.073-51.418-56.353-71.416-24.109-20.71-51.796-36.155-82.294-45.906-30.513-9.759-62.023-13.247-93.653-10.366-30.566 2.772-59.951 11.335-87.336 25.45-27.389 14.112-51.413 33.069-71.408 56.344-18.41 21.441-32.705 45.798-42.486 72.385a227.782 227.782 0 0 0-3.411 9.915 237.373 237.373 0 0 0-2.92 9.855c-9.415 25.527-23.147 48.899-40.816 69.468a231.238 231.238 0 0 1-3.288 3.736c-.327.364-.657.725-.986 1.087a230.27 230.27 0 0 1-2.497 2.704c-.335.357-.669.715-1.006 1.07a228.444 228.444 0 0 1-3.448 3.557l-.002.002a228.058 228.058 0 0 1-3.526 3.466c-.352.34-.708.676-1.062 1.013-.882.84-1.771 1.673-2.667 2.498-.36.332-.719.665-1.081.995a226.838 226.838 0 0 1-3.68 3.284l-.019.016a226.917 226.917 0 0 1-3.742 3.18c-.377.313-.757.623-1.135.935-.939.772-1.884 1.536-2.835 2.293-.384.305-.767.612-1.152.915a226.159 226.159 0 0 1-3.908 3.007l-.024.018c-1.308.981-2.63 1.945-3.96 2.898-.401.288-.805.571-1.208.856-.991.702-1.99 1.395-2.993 2.082-.407.278-.813.558-1.222.833-1.365.92-2.737 1.831-4.124 2.723l-.002.001a231.703 231.703 0 0 1-19.157 11.057c-26.358 13.586-54.637 21.826-84.053 24.494-30.42 2.773-60.744-.59-90.126-9.987-29.374-9.395-56.02-24.258-79.196-44.175-22.406-19.248-40.65-42.37-54.225-68.724-13.592-26.372-21.836-54.651-24.502-84.052-2.499-27.56.025-55.095 7.502-81.842h-.005a579.338 579.338 0 0 1 2.559-8.242 531.74 531.74 0 0 1 2.74-8.3z"/><path d="M652.826 698.58c6.838 9.271 4.966 22.885-4.877 29.857-9.396 6.66-22.573 4.867-29.625-5.02-6.704-9.388-4.85-22.555 5.02-29.625 9.351-6.713 22.6-4.672 29.482 4.787z" class="st0"/><path d="M576.092 165.685c-1.293-.428-2.88.018-4.342.107-43.283 2.47-85.676 9.959-126.864 23.6-38.907 12.89-74.416 31.461-102.321 62.62-22.796 25.445-42.036 53.332-56.487 84.178-14.586 31.124-27.433 63.058-41.581 94.387-6.954 15.37-13.721 31.185-29.715 40.163-1.489.83-2.514 5.064-1.694 6.695.803 1.65 4.592 3.29 6.348 2.729 5.001-1.623 9.95-3.896 14.345-6.776 6.873-4.502 13.23-9.79 19.925-14.594 22.467-16.084 48.232-25.186 74.488-31.721 68.175-16.93 119-57.7 160.074-112.636 7.694-10.288 14.54-21.21 21.905-32.033l51.191-87.022c5.608-6.57 12.847-11.714 18.945-17.893 2.077-2.122 2.924-5.43 4.333-8.193-2.853-1.24-5.626-2.639-8.55-3.61zm-65.153 118.422c-.027-.446-.383-.873-.758-1.712l.758 1.712z"/><path d="M451.376 322.746c-4.796 35.028-38.38 59.599-74.041 53.545-32.56-5.527-60.098-37.818-51.335-77.75 6.687-30.446 36.767-55.07 73.444-48.882 33.513 5.643 57.94 38.041 51.932 73.087zm-66.339 11.207c11.555 1.818 22.369-6.107 24.241-17.456 1.97-11.974-6.027-22.6-17.403-24.5-11.982-1.997-22.564 6.045-24.499 17.403-2.041 11.884 6.268 22.832 17.661 24.553zM447.908 858.306c1.293.428 2.88-.018 4.342-.107 43.284-2.47 85.676-9.959 126.864-23.599 38.907-12.892 74.416-31.462 102.321-62.621 22.797-25.444 42.036-53.331 56.488-84.178 14.585-31.123 27.432-63.058 41.58-94.386 6.954-15.37 13.721-31.186 29.715-40.164 1.489-.829 2.514-5.064 1.694-6.695-.802-1.65-4.591-3.29-6.348-2.728-5.001 1.622-9.95 3.896-14.344 6.775-6.874 4.503-13.23 9.79-19.926 14.595-22.467 16.083-48.232 25.185-74.487 31.72-68.176 16.93-119.002 57.7-160.074 112.636-7.694 10.288-14.541 21.21-21.905 32.033l-51.192 87.022c-5.607 6.57-12.847 11.715-18.945 17.893-2.077 2.122-2.924 5.43-4.333 8.193 2.853 1.248 5.626 2.648 8.55 3.61zm65.153-118.413c.027.445.383.873.758 1.711l-.758-1.711z" class="st0"/><path d="M572.633 701.254c4.796-35.028 38.38-59.599 74.041-53.545 32.56 5.527 60.098 37.818 51.335 77.75-6.687 30.446-36.767 55.07-73.445 48.883-33.521-5.653-57.949-38.042-51.931-73.088zm66.33-11.207c-11.554-1.818-22.369 6.107-24.241 17.457-1.97 11.973 6.027 22.6 17.403 24.499 11.982 1.997 22.564-6.045 24.499-17.403 2.041-11.884-6.268-22.832-17.661-24.553z"/></g></svg>